<?xml version="1.0" encoding="utf-8"?>
<!-- Generator: Adobe Illustrator 18.1.1, SVG Export Plug-In . SVG Version: 6.00 Build 0)  -->
<!DOCTYPE svg PUBLIC "-//W3C//DTD SVG 1.1//EN" "http://www.w3.org/Graphics/SVG/1.1/DTD/svg11.dtd">
<svg version="1.1" id="Layer_1" xmlns="http://www.w3.org/2000/svg" xmlns:xlink="http://www.w3.org/1999/xlink" x="0px" y="0px"
	 viewBox="11 360 552 253" enable-background="new 11 360 552 253" xml:space="preserve">
<g>
	<path d="M136.3,565.6c23.7-0.1,47.4-0.2,71.1-0.3c20.5-0.1,41,0,61.5,0c3.4,0,6.6-0.3,8.4,4.1c0.6,1.4,3.9,2.4,6,2.5
		c10.9,0.2,21.8,0.4,32.7-0.1c2.4-0.1,4.8-2.5,7.2-3.9c1.5-0.9,3.1-2.5,4.6-2.5c44-0.1,88,0,131.9,0c0.8,0,1.6,0.4,2.3,0.6
		c1.6,10.1-1.9,14.4-11.7,14.4c-100.3,0-200.7,0-301,0.1c-6,0-9.9-2.6-12.9-7.4C136.3,570.7,136.3,568.2,136.3,565.6z"/>
	<path d="M299.6,554c-36.7,0-73.4,0-110.2,0c-10.9,0-13.2-2.3-13.2-13c0-43.1,0-86.2,0-129.4c0-10.3,3-13.4,13.2-13.4
		c73.4,0,146.9,0,220.3,0c10.2,0,13.2,3.1,13.2,13.4c0,43.1,0,86.2,0,129.4c0,10.7-2.3,13-13.2,13C373.1,554,336.4,554,299.6,554z
		 M410.8,410.6c-74.3,0-148.1,0-222.4,0c-0.2,2.8-0.5,5.3-0.5,7.8c0,38.6,0,77.2,0,115.9c0,8.2,0.1,8.3,8.7,8.3
		c68.7,0,137.4,0,206.1,0c8.6,0,8.6,0,8.6-8.3c0-38.6,0-77.2,0-115.9C411.3,415.8,411,413.3,410.8,410.6z"/>
	<rect x="219.8" y="449.8" fill="#FFFFFF" stroke="#231F20" stroke-width="10" stroke-miterlimit="10" width="45" height="46.6"/>
	<rect x="276.3" y="449.7" fill="#FFFFFF" stroke="#231F20" stroke-width="10" stroke-miterlimit="10" width="45" height="46.6"/>
	<rect x="332.9" y="449.9" fill="#FFFFFF" stroke="#231F20" stroke-width="10" stroke-miterlimit="10" width="45" height="46.6"/>
	<path stroke="#000000" stroke-width="6" stroke-miterlimit="10" d="M478.1,493.2c0-4.6,0-9.3,0-14.1c0-0.7-0.3-1.8,0.9-1.8
		c1.1,0,0.8,1.1,0.8,1.8c0,4.7,0,9.5,0,14.3c1.8,0.3,3.6,0.4,5.3,0.8c6.1,1.3,11.3,4.2,15.1,9.2c1.8,2.5,3,5.3,3.4,8.3
		c0.1,0.6,0.2,1.1,1,1.4c1.2,0.4,1.9,1.5,1.8,2.6c-0.1,1.2-0.7,2.1-1.8,2.5c-0.8,0.3-1,0.7-1,1.4c-1.1,9-2.3,18-3.4,27.1
		c-1.2,9.6-2.4,19.2-3.6,28.8c-0.1,0.8-0.3,1.6-0.3,2.4c-0.1,1-0.6,1.2-1.5,1.2c-4.9,0-9.9,0-14.8,0c-5.5,0-11,0-16.5,0
		c-1.2,0-1.6-0.4-1.7-1.5c-0.8-6.6-1.6-13.1-2.5-19.7c-1.1-8.4-2.1-16.9-3.2-25.3c-0.6-4.4-1.1-8.8-1.6-13.2
		c-0.1-0.6-0.2-0.9-0.8-1.1c-1.2-0.4-2-1.3-2-2.6c-0.1-1.1,0.7-2.1,1.9-2.7c0.3-0.2,0.7-0.5,0.8-0.8c1.4-9,7.1-14.2,15.3-17.1
		C472.2,494.2,475.1,493.8,478.1,493.2z M458.2,536.1c0.8,6.7,1.7,13.3,2.5,19.9c12.2,0,24.3,0,36.5,0c0.8-6.7,1.7-13.2,2.5-19.9
		C485.8,536.1,472.1,536.1,458.2,536.1z M458,534.2c14,0,27.9,0,41.9,0c0.7-5.3,1.3-10.5,2-15.7c-15.4,0-30.6,0-45.9,0
		C456.7,523.8,457.3,529,458,534.2z M463.4,577.2c10.4,0,20.8,0,31.1,0c0.8-6.5,1.6-12.9,2.4-19.4c-12.1,0-24,0-36,0
		C461.8,564.4,462.6,570.8,463.4,577.2z M478,495.3c-3.2,0.1-6.1,0.7-8.9,1.8c-5.4,2.1-9.7,5.5-12,10.9c-0.6,1.5-0.9,3.2-1.4,4.8
		c7.6,0,15,0,22.3,0C478,506.9,478,501.1,478,495.3z M479.9,495.3c0,5.9,0,11.7,0,17.4c7.4,0,14.7,0,22,0
		C501.2,502.8,490.7,495.4,479.9,495.3z M478,514.5c-0.5,0-0.9,0-1.2,0c-7.2,0-14.3,0-21.5,0c-0.9,0-1.9-0.1-2.1,1.1
		c-0.1,0.7,0.6,1.1,2,1.1c7.3,0,14.6,0,21.9,0c0.3,0,0.6-0.1,0.8-0.1C478,516,478,515.3,478,514.5z M479.9,516.8c0.3,0,0.5,0,0.8,0
		c7.3,0,14.7,0,22,0c0.9,0,1.8,0.1,2-1.1c0.1-0.7-0.6-1.2-2-1.2c-7.2,0-14.5,0-21.7,0c-0.4,0-0.7,0-1.1,0
		C479.9,515.3,479.9,516,479.9,516.8z"/>
	<path d="M458.2,536.1c13.9,0,27.6,0,41.4,0c-0.8,6.6-1.7,13.2-2.5,19.9c-12.1,0-24.3,0-36.5,0C459.9,549.4,459.1,542.8,458.2,536.1
		z"/>
	<path d="M458,534.2c-0.7-5.2-1.3-10.4-2-15.7c15.3,0,30.5,0,45.9,0c-0.7,5.2-1.3,10.4-2,15.7C485.9,534.2,472,534.2,458,534.2z"/>
	<path d="M463.4,577.2c-0.8-6.5-1.6-12.9-2.4-19.4c12,0,23.9,0,36,0c-0.8,6.5-1.6,12.9-2.4,19.4
		C484.2,577.2,473.8,577.2,463.4,577.2z"/>
	<path d="M478,514.5c0,0.8,0,1.4,0,2.1c-0.3,0-0.5,0.1-0.8,0.1c-7.3,0-14.6,0-21.9,0c-1.4,0-2.1-0.4-2-1.1c0.2-1.2,1.2-1.1,2.1-1.1
		c7.2,0,14.3,0,21.5,0C477.2,514.5,477.6,514.5,478,514.5z"/>
	<path d="M479.9,516.8c0-0.8,0-1.4,0-2.2c0.4,0,0.7,0,1.1,0c7.2,0,14.5,0,21.7,0c1.3,0,2.1,0.4,2,1.2c-0.2,1.1-1.1,1.1-2,1.1
		c-7.3,0-14.7,0-22,0C480.4,516.8,480.2,516.8,479.9,516.8z"/>
</g>
</svg>
